<svg width="150" height="36" viewBox="0 0 128 27" fill="none" xmlns="http://www.w3.org/2000/svg">
<path d="M8.708 21.28C7.17733 21.28 5.712 21.0653 4.312 20.636C2.912 20.188 1.80133 19.6187 0.98 18.928L2.24 16.1C3.024 16.716 3.99467 17.2293 5.152 17.64C6.30933 18.0507 7.49467 18.256 8.708 18.256C9.73467 18.256 10.5653 18.144 11.2 17.92C11.8347 17.696 12.3013 17.3973 12.6 17.024C12.8987 16.632 13.048 16.1933 13.048 15.708C13.048 15.1107 12.8333 14.6347 12.404 14.28C11.9747 13.9067 11.4147 13.6173 10.724 13.412C10.052 13.188 9.296 12.9827 8.456 12.796C7.63467 12.6093 6.804 12.3947 5.964 12.152C5.14267 11.8907 4.38667 11.564 3.696 11.172C3.024 10.7613 2.47333 10.22 2.044 9.548C1.61467 8.876 1.4 8.01733 1.4 6.972C1.4 5.908 1.68 4.93733 2.24 4.06C2.81867 3.164 3.68667 2.45467 4.844 1.932C6.02 1.39067 7.504 1.12 9.296 1.12C10.472 1.12 11.6387 1.26933 12.796 1.568C13.9533 1.86667 14.9613 2.296 15.82 2.856L14.672 5.684C13.7947 5.16133 12.8893 4.77867 11.956 4.536C11.0227 4.27467 10.1267 4.144 9.268 4.144C8.26 4.144 7.43867 4.26533 6.804 4.508C6.188 4.75067 5.73067 5.068 5.432 5.46C5.152 5.852 5.012 6.3 5.012 6.804C5.012 7.40133 5.21733 7.88667 5.628 8.26C6.05733 8.61467 6.608 8.89467 7.28 9.1C7.97067 9.30533 8.736 9.51067 9.576 9.716C10.416 9.90267 11.2467 10.1173 12.068 10.36C12.908 10.6027 13.664 10.92 14.336 11.312C15.0267 11.704 15.5773 12.236 15.988 12.908C16.4173 13.58 16.632 14.4293 16.632 15.456C16.632 16.5013 16.3427 17.472 15.764 18.368C15.204 19.2453 14.336 19.9547 13.16 20.496C11.984 21.0187 10.5 21.28 8.708 21.28ZM25.5334 21.196C23.8907 21.196 22.6214 20.776 21.7254 19.936C20.8294 19.0773 20.3814 17.8173 20.3814 16.156V2.744H23.8814V16.072C23.8814 16.7813 24.0587 17.332 24.4134 17.724C24.7867 18.116 25.3 18.312 25.9534 18.312C26.7374 18.312 27.3907 18.1067 27.9134 17.696L28.8934 20.188C28.4827 20.524 27.9787 20.776 27.3814 20.944C26.784 21.112 26.168 21.196 25.5334 21.196ZM17.9174 8.96V6.16H27.8854V8.96H17.9174ZM38.3084 21.196C36.647 21.196 35.191 20.8693 33.9404 20.216C32.7084 19.544 31.747 18.6293 31.0564 17.472C30.3844 16.3147 30.0484 14.9987 30.0484 13.524C30.0484 12.0307 30.375 10.7147 31.0284 9.576C31.7004 8.41867 32.615 7.51333 33.7724 6.86C34.9484 6.20667 36.283 5.88 37.7764 5.88C39.2324 5.88 40.5297 6.19733 41.6684 6.832C42.807 7.46667 43.703 8.36267 44.3564 9.52C45.0097 10.6773 45.3364 12.04 45.3364 13.608C45.3364 13.7573 45.327 13.9253 45.3084 14.112C45.3084 14.2987 45.299 14.476 45.2804 14.644H32.8204V12.32H43.4324L42.0604 13.048C42.079 12.1893 41.9017 11.4333 41.5284 10.78C41.155 10.1267 40.6417 9.61333 39.9884 9.24C39.3537 8.86667 38.6164 8.68 37.7764 8.68C36.9177 8.68 36.1617 8.86667 35.5084 9.24C34.8737 9.61333 34.3697 10.136 33.9964 10.808C33.6417 11.4613 33.4644 12.236 33.4644 13.132V13.692C33.4644 14.588 33.6697 15.3813 34.0804 16.072C34.491 16.7627 35.0697 17.2947 35.8164 17.668C36.563 18.0413 37.4217 18.228 38.3924 18.228C39.2324 18.228 39.9884 18.0973 40.6604 17.836C41.3324 17.5747 41.9297 17.164 42.4524 16.604L44.3284 18.76C43.6564 19.544 42.807 20.1507 41.7804 20.58C40.7724 20.9907 39.615 21.196 38.3084 21.196ZM56.9863 21.196C55.773 21.196 54.6623 20.916 53.6543 20.356C52.665 19.796 51.8717 18.956 51.2743 17.836C50.6957 16.6973 50.4063 15.26 50.4063 13.524C50.4063 11.7693 50.6863 10.332 51.2463 9.212C51.825 8.092 52.609 7.26133 53.5983 6.72C54.5877 6.16 55.717 5.88 56.9863 5.88C58.461 5.88 59.7583 6.19733 60.8783 6.832C62.017 7.46667 62.913 8.35333 63.5663 9.492C64.2383 10.6307 64.5743 11.9747 64.5743 13.524C64.5743 15.0733 64.2383 16.4267 63.5663 17.584C62.913 18.7227 62.017 19.6093 60.8783 20.244C59.7583 20.8787 58.461 21.196 56.9863 21.196ZM48.6983 26.432V6.048H52.0303V9.576L51.9183 13.552L52.1983 17.528V26.432H48.6983ZM56.5943 18.2C57.4343 18.2 58.181 18.0133 58.8343 17.64C59.5063 17.2667 60.0383 16.7253 60.4303 16.016C60.8223 15.3067 61.0183 14.476 61.0183 13.524C61.0183 12.5533 60.8223 11.7227 60.4303 11.032C60.0383 10.3227 59.5063 9.78133 58.8343 9.408C58.181 9.03467 57.4343 8.848 56.5943 8.848C55.7543 8.848 54.9983 9.03467 54.3263 9.408C53.6543 9.78133 53.1223 10.3227 52.7303 11.032C52.3383 11.7227 52.1423 12.5533 52.1423 13.524C52.1423 14.476 52.3383 15.3067 52.7303 16.016C53.1223 16.7253 53.6543 17.2667 54.3263 17.64C54.9983 18.0133 55.7543 18.2 56.5943 18.2ZM76.3777 5.88C77.5723 5.88 78.6363 6.11333 79.5697 6.58C80.5217 7.04667 81.2683 7.76533 81.8097 8.736C82.351 9.688 82.6217 10.92 82.6217 12.432V21H79.1217V12.88C79.1217 11.5547 78.8043 10.5653 78.1697 9.912C77.5537 9.25867 76.6857 8.932 75.5657 8.932C74.7443 8.932 74.0163 9.1 73.3817 9.436C72.747 9.772 72.2523 10.276 71.8977 10.948C71.5617 11.6013 71.3937 12.432 71.3937 13.44V21H67.8937V0.223999H71.3937V10.08L70.6377 8.848C71.1603 7.896 71.9163 7.168 72.9057 6.664C73.9137 6.14133 75.071 5.88 76.3777 5.88ZM94.117 21.196C92.4556 21.196 90.9996 20.8693 89.749 20.216C88.517 19.544 87.5556 18.6293 86.865 17.472C86.193 16.3147 85.857 14.9987 85.857 13.524C85.857 12.0307 86.1836 10.7147 86.837 9.576C87.509 8.41867 88.4236 7.51333 89.581 6.86C90.757 6.20667 92.0916 5.88 93.585 5.88C95.041 5.88 96.3383 6.19733 97.477 6.832C98.6156 7.46667 99.5116 8.36267 100.165 9.52C100.818 10.6773 101.145 12.04 101.145 13.608C101.145 13.7573 101.136 13.9253 101.117 14.112C101.117 14.2987 101.108 14.476 101.089 14.644H88.629V12.32H99.241L97.869 13.048C97.8876 12.1893 97.7103 11.4333 97.337 10.78C96.9636 10.1267 96.4503 9.61333 95.797 9.24C95.1623 8.86667 94.425 8.68 93.585 8.68C92.7263 8.68 91.9703 8.86667 91.317 9.24C90.6823 9.61333 90.1783 10.136 89.805 10.808C89.4503 11.4613 89.273 12.236 89.273 13.132V13.692C89.273 14.588 89.4783 15.3813 89.889 16.072C90.2996 16.7627 90.8783 17.2947 91.625 17.668C92.3716 18.0413 93.2303 18.228 94.201 18.228C95.041 18.228 95.797 18.0973 96.469 17.836C97.141 17.5747 97.7383 17.164 98.261 16.604L100.137 18.76C99.465 19.544 98.6156 20.1507 97.589 20.58C96.581 20.9907 95.4236 21.196 94.117 21.196ZM112.991 5.88C114.186 5.88 115.25 6.11333 116.183 6.58C117.135 7.04667 117.882 7.76533 118.423 8.736C118.964 9.688 119.235 10.92 119.235 12.432V21H115.735V12.88C115.735 11.5547 115.418 10.5653 114.783 9.912C114.167 9.25867 113.299 8.932 112.179 8.932C111.358 8.932 110.63 9.1 109.995 9.436C109.36 9.772 108.866 10.276 108.511 10.948C108.175 11.6013 108.007 12.432 108.007 13.44V21H104.507V6.048H107.839V10.08L107.251 8.848C107.774 7.896 108.53 7.168 109.519 6.664C110.527 6.14133 111.684 5.88 112.991 5.88Z" fill="#232323"/>
<path d="M125.047 21.224C124.3 21.224 123.656 20.972 123.115 20.468C122.592 19.9453 122.331 19.2827 122.331 18.48C122.331 17.6773 122.592 17.0333 123.115 16.548C123.656 16.044 124.3 15.792 125.047 15.792C125.812 15.792 126.456 16.044 126.979 16.548C127.502 17.0333 127.763 17.6773 127.763 18.48C127.763 19.2827 127.502 19.9453 126.979 20.468C126.456 20.972 125.812 21.224 125.047 21.224Z" fill="#E80A0A"/>
</svg>